<?xml version="1.0" encoding="utf-8" ?><svg xmlns="http://www.w3.org/2000/svg" xmlns:xlink="http://www.w3.org/1999/xlink" width="1024" height="1024" viewBox="0 0 1024 1024"><path fill="#0D0F11" d="M0 0L1024 0L1024 1024L0 1024L0 0Z"/><path fill="#FEFEFE" d="M781.463 279.613L781.598 279.778C781.434 286.287 749.635 333.089 741.114 337.679C736.489 340.171 723.267 345.323 717.297 347.711C701.178 354.158 684.589 360.323 668.561 366.933C626.454 384.299 588.801 412.121 555.988 443.38C551.504 447.651 537.616 460.618 534.509 465.298C526.476 477.396 518.035 494.702 511.493 507.923C505.314 494.589 497.592 477.631 489.29 465.788C485.128 459.85 473.213 448.81 467.382 443.203C439.764 416.647 407.677 392.003 373.18 375.069C364.128 370.626 353.723 366.527 344.307 362.748L302.868 346.578C277.518 336.606 278.593 337.031 262.421 314.727C255.469 304.895 245.738 290.175 241.233 279.193C250.254 283.765 259.169 289.198 268.316 293.834C285.01 302.169 302.262 309.337 319.948 315.284C330.937 318.902 342.004 322.281 353.139 325.419C357.334 326.555 375.187 330.764 377.781 332.508C428.322 366.489 471.147 408.501 511.684 453.615C520.727 443.688 528.973 434.08 538.417 424.391C565.341 396.769 593.959 370.96 624.849 347.823C630.804 343.363 638.946 335.715 645.429 332.614C649.447 330.692 658.817 328.497 663.429 327.259C672.534 324.833 681.603 322.27 690.631 319.573C722.397 309.933 752.892 296.517 781.463 279.613Z"/><path fill="#0D0F11" d="M719.892 326.49L720.316 327.024C699.956 343.314 673.901 360.398 649.963 370.982L649.628 370.633C650.872 368.448 663.929 359.04 666.971 356.848C683.435 344.987 701.752 335.498 719.892 326.49Z"/><path fill="#0D0F11" d="M302.513 326.392C306.296 326.951 312.918 330.695 316.456 332.542C337.008 343.116 356.382 355.839 374.253 370.497C370.296 369.762 362.662 365.525 358.907 363.57C338.005 352.69 320.924 340.893 302.513 326.392Z"/><path fill="#1B2E39" d="M554.686 313.907C568.323 317.57 582.391 320.953 595.886 324.929C584.88 341.938 574.907 359.656 562.769 375.979C559.509 380.363 554.117 388.694 550.353 392.187C538.529 403.158 524.383 413.924 511.625 423.777C508.647 421.02 503.322 417.511 499.944 414.763C492.649 407.84 479.799 399.992 473.484 392.582C456.717 372.911 441.084 346.653 427.585 324.871C438.46 320.885 457.337 316.725 469.139 313.92C470.38 322.239 479.79 365.766 484.995 370.359C505.11 366.609 518.764 367.156 538.679 370.264C543.82 362.578 552.551 323.915 554.686 313.907Z"/><path fill="#0D0F11" d="M484.995 370.359C505.11 366.609 518.764 367.156 538.679 370.264C538.258 372.005 537.993 373.613 536.559 374.819C537.464 379.221 514.963 415.111 511.373 420.328C503.223 406.854 491.567 389.85 486.497 375.049C485.327 373.306 485.363 372.497 484.995 370.359Z"/><path fill="#72FEFC" d="M484.995 370.359C505.11 366.609 518.764 367.156 538.679 370.264C538.258 372.005 537.993 373.613 536.559 374.819C518.995 370.834 503.86 371.981 486.497 375.049C485.327 373.306 485.363 372.497 484.995 370.359Z"/><path fill="#72FEFC" d="M568.417 550.737L639.538 550.996L639.548 568.265L577.984 568.11C577.515 575.514 577.61 581.713 577.977 589.05C596.617 588.647 615.263 588.63 633.904 588.997L633.729 605.509C617.943 605.186 602.395 605.428 586.625 605.279L577.699 605.269C577.526 612.075 577.556 618.885 577.791 625.689C597.481 624.712 620.184 625.376 639.947 625.564L639.682 642.422L555.994 642.275L556.039 550.996L568.417 550.737Z"/><path fill="#72FEFC" d="M745.914 550.502L828.514 550.507L828.51 567.504L767.506 567.426C767.379 574.279 767.345 581.134 767.404 587.988C785.898 587.859 804.392 587.86 822.886 587.992C822.719 593.364 822.644 598.739 822.661 604.113C810.075 603.953 797.348 604.025 784.75 604.012L767.359 604.02C767.127 610.787 767.303 617.309 767.446 624.077L828.805 623.994L828.644 640.504L745.647 640.499L745.914 550.502Z"/><path fill="#FEFEFE" d="M231.299 550.202C240.65 548.982 256.754 552.185 266.118 554.256C265.076 560.217 264.189 566.432 263.261 572.43C253.012 569.916 227.209 564.868 217.656 573.028C216.3 574.186 215.297 577.217 215.512 579.062C216.834 590.386 237.224 587.904 245.32 590.725C251.56 592.058 257.57 594.173 262.466 598.45C271.647 606.468 270.126 626.192 261.9 634.366C254.214 642.003 239.573 644.51 229.111 644.503C215.806 644.519 207.038 642.96 194.378 640.054C194.631 634.476 196.07 626.877 197.042 621.293C205.353 624.062 239.876 631.767 246.204 621.355C255.139 606.651 227.234 607.114 219.502 605.398C214.108 604.201 207.986 602.499 203.126 598.852C198.431 595.363 195.356 590.114 194.607 584.313C191.164 558.815 210.653 552.391 231.299 550.202Z"/><path fill="#FEFEFE" d="M716.926 573.97L738.622 574.01C730.469 593.575 722.419 613.182 714.472 632.83C702.726 663.776 694.816 682.066 657.347 674.734C657.996 668.989 658.761 663.258 659.64 657.544C676.761 661.073 681.77 659.572 689.954 643.658C668.127 642.561 669.185 627.73 661.484 611.082C655.927 599.069 650.497 586.438 645.998 574.008C653.409 573.985 660.82 574.003 668.23 574.064C671.707 582.172 686.343 623.757 690.774 626.332C691.798 626.927 692.686 627.169 693.832 626.689C695.594 625.951 696.894 623.63 697.744 622.046C700.503 616.907 702.242 610.828 704.363 605.393C708.469 594.886 712.656 584.411 716.926 573.97Z"/><path fill="#FEFEFE" d="M507.853 573.989L535.937 574.035C524.111 583.559 512.974 596.508 501.368 606.817C505.489 611.068 535.257 638.757 536.263 641.757C535.042 642.646 534.933 642.341 533.125 642.425L509.509 642.425C502.463 634.909 494.547 627.81 487.166 619.902C479.498 626.618 471.529 636.174 464.085 642.415C454.836 642.539 445.585 642.53 436.337 642.389C447.775 630.617 460.954 617.728 473.244 607.027C461.204 596.27 450.518 584.466 438.862 574.041C448.148 573.853 457.892 574.001 467.213 574C473.901 580.808 479.99 587.396 486.888 594.097C493.865 588.071 501.195 580.517 507.853 573.989Z"/><path fill="#FEFEFE" d="M305.817 554.634C307.169 554.429 306.745 554.458 308.111 554.621C309.853 557.362 309.021 570.086 308.919 574.091L328.499 574.092L328.501 589.504L308.996 589.504C308.717 597.99 308.381 606.731 308.357 615.22C308.348 618.435 309.342 622.225 311.923 624.376C316.379 628.087 323.137 626.733 328.523 626.155C328.617 631.669 328.853 637.332 329.021 642.857C325.978 643.179 322.929 643.44 319.876 643.64C311.644 644.354 300.75 643.558 295.013 637.169C285.808 626.918 288.706 602.803 288.785 589.519L276.616 589.402L276.941 574.106L288.728 574.083C288.975 568.952 288.874 562.9 288.906 557.693C293.862 557.047 300.757 555.569 305.817 554.634Z"/><path fill="#FEFEFE" d="M381.732 573.095C384.815 572.832 387.956 572.928 391.056 572.948C390.932 579.088 390.124 585.948 389.327 592.028C364.386 587.799 361.737 603.751 362.612 623.316C362.881 629.355 362.675 636.299 362.72 642.421C356.005 642.476 349.29 642.428 342.577 642.278C341.653 621.93 342.51 594.878 342.576 574.103C349.213 574.062 355.385 574.054 362.015 574.32L362.055 584.823C368.839 577.475 371.883 575.263 381.732 573.095Z"/><path fill="#FEFEFE" d="M544.278 724.349C543.385 732.714 541.043 738.662 537.982 746.326C531.097 762.883 520.592 780.532 511.394 795.885C501.596 781.402 479.814 741.902 479.501 724.867C492.155 730.076 505.459 756.944 511.532 769.346C519.235 752.999 529.061 734.74 544.278 724.349Z"/><path fill="#FEFEFE" d="M276.185 444.978C284.092 445.177 292.389 446.947 300.416 447.37C313.394 448.055 325.877 447.098 338.788 446.43C338.47 448.076 338.178 449.727 337.913 451.382C335.161 468.851 340.149 476.586 350.131 490.339C350.527 491.306 350.497 490.809 350.202 491.831C347.9 491.923 341.607 489.232 339.28 488.286C315.062 478.446 294.715 463.149 276.185 444.978Z"/><path fill="#FEFEFE" d="M744.186 445.199L746.086 445.014L746.346 445.627C736.397 459.785 689.265 490.423 671.659 492.163C673.5 489.46 676.501 486.21 678.567 483.185C687.554 470.033 687.31 461.024 684.68 446.235C708.049 448.147 720.866 448.11 744.186 445.199Z"/><path fill="#FEFEFE" d="M403.076 574.001C409.862 573.932 416.65 574.01 423.433 574.236C423.768 596.964 423.735 619.696 423.332 642.423L402.993 642.323L403.076 574.001Z"/><path fill="#72FEFC" d="M606.971 420.564C612.114 418.465 616.062 416.966 621.56 415.957L623.803 423.875C625.813 434.835 624.823 444.875 618.366 454.351C613.431 461.688 605.748 466.726 597.053 468.33C582.81 470.938 571.703 464.811 562.261 454.505C565.969 450.802 569.83 447.035 573.48 443.292C584.756 457.786 602.326 458.403 611.86 442.169C613.683 437.061 614.216 434.034 613.838 428.711C608.56 432.14 603.434 429.033 604.206 422.559C604.327 421.54 606.071 420.97 606.971 420.564Z"/><path fill="#72FEFC" d="M606.971 420.564C612.114 418.465 616.062 416.966 621.56 415.957L623.803 423.875C620.883 422.708 619.129 422.873 616.054 423.418C615.772 427.895 618.269 426.233 616.741 430.711C615.465 434.454 615.536 440.01 611.86 442.169C613.683 437.061 614.216 434.034 613.838 428.711C608.56 432.14 603.434 429.033 604.206 422.559C604.327 421.54 606.071 420.97 606.971 420.564Z"/><path fill="#FEFEFE" d="M606.971 420.564C609.272 420.706 611.071 420.544 612.96 421.751C613.705 422.821 613.881 423.002 614.449 424.158C614.223 425.686 613.993 427.171 613.838 428.711C608.56 432.14 603.434 429.033 604.206 422.559C604.327 421.54 606.071 420.97 606.971 420.564Z"/><path fill="#72FEFC" d="M460.7 454.515C447.946 468.362 430.268 474.829 413.583 463.145C405.911 457.802 400.758 449.553 399.322 440.314C398.344 434.232 398.949 421.784 402.466 416.897C405.596 415.495 408.751 417.89 412.268 418.815L413.163 419.042L420.804 422.403C418.181 427.753 416.331 433.394 409.567 428.536L409.192 428.262C408.365 435.82 410.317 443.12 416.071 448.351C420.72 452.51 426.885 454.556 433.097 454.001C441.215 453.267 445.449 448.855 450.117 443.019C453.561 446.927 457.09 450.76 460.7 454.515Z"/><path fill="#FEFEFE" d="M413.163 419.042L420.804 422.403C418.181 427.753 416.331 433.394 409.567 428.536L409.192 428.262C408.919 423.48 409.853 422.434 413.163 419.042Z"/><path fill="#1B2E39" d="M533.252 653.005L551.258 653.023C547.753 656.58 544.438 660.446 541.13 664.197C531.731 674.963 521.35 685.206 511.732 696.043C498.158 681.803 485.29 667.137 471.816 653.02L490.687 652.997C497.42 659.753 504.911 668.764 511.663 675.972C518.908 669.016 526.161 660.388 533.252 653.005Z"/><path fill="#FEFEFE" d="M459.134 665.21C459.261 665.305 459.397 665.389 459.514 665.496C467.91 673.135 468.089 730.364 468.437 743.454C455.574 733.503 447.331 722.354 438.282 709.274C435.269 704.783 426.965 690.994 428.355 685.993L429.252 685.535C435.861 687.193 452.074 709.323 457.024 715.512C454.736 700.356 452.182 679.194 459.134 665.21Z"/><path fill="#FEFEFE" d="M563.622 665.269C572.149 673.155 567.768 704.676 565.924 716.167C571.505 709.141 586.93 687.223 594.907 684.787L595.721 685.232C596.466 690.227 588.489 703.359 585.673 708.066C577.372 721.523 566.826 733.458 554.494 743.353C554.596 723.676 556.079 682.304 563.622 665.269Z"/><path fill="#FEFEFE" d="M269.846 380.009C275.652 381.954 282.415 386.244 288.305 388.633C297.445 392.341 306.731 394.904 316.178 397.662C327.727 411.515 328.926 412.15 342.993 422.951C313.763 419.686 286.526 404.553 269.846 380.009Z"/><path fill="#FEFEFE" d="M752.529 380.416L753.294 380.66C753.099 381.306 753 381.593 752.548 382.119C733.247 404.603 711.889 419.187 682.613 422.835L681.787 422.832L681.633 422.177C683.063 420.499 685.071 419.253 686.903 418.015C695.251 412.376 701.343 405.008 707.766 397.362C723.733 393.544 737.913 387.768 752.529 380.416Z"/><defs><linearGradient id="gradient_0" gradientUnits="userSpaceOnUse" x1="424.57153" y1="469.78159" x2="418.37158" y2="498.18814"><stop offset="0" stop-color="#BCFFFF"/><stop offset="1" stop-color="white"/></linearGradient></defs><path fill="url(#gradient_0)" d="M386.944 465.219C391.244 463.495 392.482 462.072 396.581 463.232C407.451 476.824 416.454 487.039 432.99 494.129C441.894 497.946 448.776 500.379 456.744 506.188C429.58 504.898 399.614 490.242 386.944 465.219Z"/><defs><linearGradient id="gradient_1" gradientUnits="userSpaceOnUse" x1="599.58856" y1="465.32767" x2="602.66986" y2="502.27548"><stop offset="0" stop-color="#BBFDFF"/><stop offset="1" stop-color="white"/></linearGradient></defs><path fill="url(#gradient_1)" d="M627.861 461.224C630.136 463.087 633.232 464.573 635.971 465.674C634.458 468.203 632.821 470.656 631.064 473.022C614.034 495.837 593.07 502.87 566.356 506.526C574.222 499.493 578.918 499.11 588.506 495.019C605.442 487.792 617.607 476.141 627.861 461.224Z"/><path fill="#72FEFC" d="M380.388 411.541C383.762 412.121 386.514 412.38 389.929 412.683C384.51 434.165 386.408 444.101 396.581 463.232C392.482 462.072 391.244 463.495 386.944 465.219C386.039 463.767 385.166 462.294 384.325 460.804C376.391 446.418 375.938 427.104 380.388 411.541Z"/><path fill="#72FEFC" d="M633.63 412.998L643.272 411.244C647.821 430.202 646.752 448.073 636.462 464.874L635.971 465.674C633.232 464.573 630.136 463.087 627.861 461.224C637.398 445.442 638.193 431.539 633.933 414.219L633.63 412.998Z"/><path fill="#FEFEFE" d="M412.187 544.223C418.156 543.468 423.624 547.647 424.463 553.605C425.303 559.562 421.202 565.089 415.257 566.013C411.335 566.623 407.389 565.073 404.93 561.958C402.471 558.844 401.88 554.646 403.383 550.973C404.885 547.3 408.25 544.72 412.187 544.223Z"/><path fill="#BCC2D9" d="M296.196 370.976C300.48 371.414 306.414 373.158 310.751 374.231C317.137 375.796 323.544 377.275 329.97 378.668C340.062 380.852 350.174 382.943 360.304 384.94C364.029 385.68 374.374 387.477 377.405 388.744C373.61 389.22 365.577 389.157 361.554 389.046C337.257 388.372 316.704 384.372 296.196 370.976Z"/><path fill="#BCC2D9" d="M725.983 371.129L726.386 371.521C724.268 373.719 718.289 376.44 715.47 377.799C694.044 388.126 669.996 389.044 646.658 388.978L646.271 388.59C647.978 387.615 662.223 385.075 665.022 384.537C685.506 380.604 705.651 375.688 725.983 371.129Z"/><path fill="#FEFEFE" d="M388.69 654.148C397.329 658.43 415.864 692.658 421.389 702.324C415.977 701.25 406.962 690.661 403.77 686.464C396.569 677.001 390.208 666.11 388.69 654.148Z"/><path fill="#FEFEFE" d="M633.547 654.444L634.186 655.132C637.006 667.472 613.239 695.035 603.271 701.877L602.626 701.771C602.648 701.461 602.67 701.151 602.692 700.84C609.604 690.135 624.133 661.361 633.547 654.444Z"/></svg>